<svg width="990" height="270" viewBox="0 0 990 270" fill="none" xmlns="http://www.w3.org/2000/svg">
<g clip-path="url(#clip0_103_115)">
<path d="M177.247 120.011C163.842 153.961 165.176 187.33 181.247 220.116L180.616 262.263C180.61 262.544 180.495 262.812 180.294 263.009C180.093 263.206 179.823 263.316 179.542 263.316L135.032 263.358C134.658 263.358 134.299 263.209 134.035 262.945C133.77 262.68 133.622 262.322 133.622 261.947C133.678 221.386 133.643 185.035 133.516 152.895C133.432 130.663 124.4 111.126 100.587 107.042C68.8996 101.59 47.6555 121.042 47.5291 152.6C47.4028 189.905 47.3537 226.411 47.3818 262.116C47.3818 262.916 46.9817 263.316 46.1816 263.316L1.86153 263.295C1.22988 263.295 0.914062 262.972 0.914062 262.326V1.75794C0.914062 1.65841 0.933671 1.55986 0.971762 1.46791C1.00985 1.37596 1.06568 1.29241 1.13607 1.22203C1.20645 1.15165 1.29001 1.09583 1.38197 1.05774C1.47393 1.01965 1.57249 1.00004 1.67203 1.00004L46.8343 0.93689C46.9851 0.93689 47.1297 0.996779 47.2363 1.10338C47.3429 1.20998 47.4028 1.35456 47.4028 1.50531L47.3818 87.7158C47.3818 91 48.1397 91.1825 49.6557 88.2632C52.112 83.5474 55.8738 79.3579 60.941 75.6948C79.0269 62.6 100.419 60.7895 122.189 63.9474C153.35 68.4737 171.436 89.9685 177.247 120.011Z" fill="#0064C6"/>
<path d="M181.247 220.116C165.175 187.33 163.842 153.961 177.247 120.011C181.64 111.674 185.051 105.891 187.479 102.663C206.204 77.7088 231.308 64.3895 262.792 62.7053C289.363 61.2947 316.713 71.5053 331.43 94.6C332.553 96.3544 333.1 96.193 333.072 94.1158L332.799 69.8842C332.796 69.711 332.827 69.539 332.892 69.3782C332.956 69.2174 333.052 69.0711 333.173 68.9476C333.295 68.8242 333.44 68.7261 333.599 68.6592C333.759 68.5923 333.931 68.5579 334.104 68.5579L378.761 68.5368C378.849 68.5368 378.937 68.5537 379.019 68.5865C379.101 68.6193 379.175 68.6674 379.237 68.728C379.3 68.7886 379.35 68.8605 379.383 68.9397C379.417 69.0189 379.435 69.1038 379.435 69.1895V261.8C379.435 262.768 378.95 263.253 377.982 263.253L334.083 263.232C333.199 263.232 332.756 262.782 332.756 261.884L333.114 237.758C333.142 236.06 332.693 235.926 331.767 237.358C316.776 260.537 292.416 269.253 264.729 269.021C228.922 268.712 201.094 252.411 181.247 220.116ZM269.569 226.122C277.334 226.692 285.138 225.699 292.534 223.198C299.93 220.698 306.775 216.739 312.676 211.549C318.578 206.359 323.421 200.038 326.93 192.948C330.438 185.857 332.543 178.137 333.124 170.226C333.705 162.316 332.75 154.37 330.316 146.844C327.881 139.317 324.013 132.357 318.933 126.36C313.853 120.363 307.66 115.447 300.708 111.893C293.757 108.339 286.182 106.217 278.417 105.646C270.652 105.076 262.848 106.07 255.452 108.57C248.055 111.071 241.211 115.029 235.309 120.219C229.408 125.41 224.564 131.731 221.056 138.821C217.548 145.911 215.443 153.632 214.862 161.542C214.281 169.453 215.235 177.398 217.67 184.925C220.105 192.452 223.973 199.412 229.053 205.409C234.133 211.405 240.325 216.321 247.277 219.875C254.229 223.429 261.804 225.552 269.569 226.122Z" fill="#FF0250"/>
<path d="M967.384 229.252L986.997 258.48C987.016 258.508 987.027 258.541 987.03 258.575C987.033 258.609 987.028 258.643 987.014 258.672C987 258.702 986.978 258.726 986.951 258.743C986.924 258.759 986.894 258.767 986.862 258.765L977.418 259C977.215 259 977.064 258.916 976.963 258.748L954.387 223.953C954.313 223.842 954.271 223.713 954.267 223.58C954.263 223.447 954.297 223.315 954.365 223.199C954.433 223.082 954.532 222.986 954.652 222.921C954.772 222.856 954.908 222.824 955.044 222.83C965.027 223.282 974.875 222.679 979.152 212.55C984.589 199.622 977.283 185.435 962.266 185.284C955.992 185.228 949.836 185.217 943.798 185.251C943.664 185.251 943.536 185.302 943.441 185.393C943.346 185.484 943.293 185.608 943.293 185.737L943.327 258.514C943.327 258.737 943.214 258.849 942.99 258.849L934.404 258.966C934.135 258.978 934 258.849 934 258.581V178.09C934 177.464 934.314 177.146 934.943 177.135C945.582 176.922 955.352 176.961 964.253 177.252C976.419 177.654 984.393 183.037 988.175 193.4C993.798 208.777 986.239 226.804 968.091 227.81C967.013 227.877 966.778 228.358 967.384 229.252Z" fill="#0064C6"/>
<path d="M582 98C582 109.404 577.47 120.342 569.406 128.406C561.342 136.47 550.404 141 539 141C527.596 141 516.658 136.47 508.594 128.406C500.53 120.342 496 109.404 496 98C496 86.5957 500.53 75.6585 508.594 67.5944C516.658 59.5304 527.596 55 539 55C550.404 55 561.342 59.5304 569.406 67.5944C577.47 75.6585 582 86.5957 582 98ZM539.526 132.514C548.496 132.373 557.042 128.6 563.283 122.024C569.524 115.449 572.949 106.61 572.806 97.4518C572.734 92.9172 571.789 88.4407 570.023 84.2779C568.258 80.1152 565.707 76.3477 562.516 73.1906C559.325 70.0334 555.556 67.5485 551.425 65.8776C547.294 64.2068 542.882 63.3827 538.441 63.4524C529.47 63.5934 520.925 67.3666 514.683 73.942C508.442 80.5174 505.017 89.3564 505.161 98.5145C505.232 103.049 506.177 107.526 507.943 111.688C509.708 115.851 512.26 119.619 515.451 122.776C518.642 125.933 522.41 128.418 526.541 130.089C530.672 131.76 535.084 132.584 539.526 132.514Z" fill="#0064C6"/>
<path d="M613.351 67.8031C612.034 69.1037 611.152 70.5909 610.705 72.2646C608.384 80.9615 611.403 86.8876 619.763 90.0429C631.433 94.4535 649.95 98.6437 650 114.98C650.044 129.083 643.353 137.553 629.926 140.392C622.693 141.907 615.857 140.59 609.416 136.439C603.244 132.447 599.773 125.944 599.003 116.931C598.996 116.862 599.003 116.793 599.024 116.727C599.045 116.661 599.08 116.601 599.126 116.55C599.172 116.498 599.228 116.457 599.29 116.43C599.352 116.402 599.42 116.388 599.488 116.388L607.96 116.422C608.25 116.422 608.412 116.575 608.445 116.88C609.617 129.739 621.605 136.813 632.856 130.655C637.421 128.155 640.06 124.327 640.775 119.17C642.014 110.145 635.869 104.394 627.95 102.019C613.585 97.7276 597.78 92.7063 601.129 73.4691C605.482 48.549 645.781 48.2776 648.292 76.1324C648.294 76.1695 648.289 76.2066 648.277 76.2415C648.264 76.2764 648.245 76.3084 648.22 76.3354C648.195 76.3625 648.164 76.384 648.131 76.3987C648.097 76.4134 648.061 76.4209 648.024 76.4208L639.167 76.4039C639.011 76.4039 638.916 76.319 638.883 76.1494C637.856 69.409 634.792 65.3038 629.691 63.8336C623.363 62.0128 617.916 63.3359 613.351 67.8031Z" fill="#0064C6"/>
<path d="M426.97 93.8794H466.047C466.201 93.8794 466.349 93.8186 466.458 93.7103C466.566 93.602 466.628 93.4551 466.628 93.3019L466.576 57.6795C466.576 57.5263 466.638 57.3794 466.746 57.2711C466.855 57.1628 467.003 57.1019 467.157 57.1019L475.402 57C475.556 57 475.704 57.0609 475.813 57.1692C475.922 57.2775 475.983 57.4244 475.983 57.5776L476 139.405C476 139.559 475.939 139.706 475.83 139.814C475.721 139.922 475.574 139.983 475.42 139.983L467.157 139.949C467.003 139.949 466.855 139.888 466.746 139.78C466.638 139.672 466.576 139.525 466.576 139.371L466.611 102.492C466.611 102.339 466.549 102.192 466.441 102.084C466.332 101.975 466.184 101.914 466.03 101.914L426.97 101.982C426.894 101.982 426.818 101.997 426.748 102.026C426.677 102.055 426.613 102.098 426.559 102.152C426.506 102.205 426.463 102.269 426.434 102.339C426.404 102.409 426.389 102.484 426.389 102.56V139.422C426.389 139.576 426.328 139.723 426.219 139.831C426.111 139.939 425.963 140 425.809 140L417.58 139.932C417.426 139.932 417.279 139.871 417.17 139.763C417.061 139.655 417 139.508 417 139.354V57.6285C417 57.4754 417.061 57.3284 417.17 57.2201C417.279 57.1118 417.426 57.051 417.58 57.051L425.809 57.017C425.963 57.017 426.111 57.0778 426.219 57.1862C426.328 57.2945 426.389 57.4414 426.389 57.5946V93.3019C426.389 93.4551 426.451 93.602 426.559 93.7103C426.668 93.8186 426.816 93.8794 426.97 93.8794Z" fill="#0064C6"/>
<path d="M678.446 108.595L678.565 139.49C678.565 139.774 678.424 139.921 678.141 139.932L669.441 140C669.324 140 669.212 139.953 669.129 139.871C669.046 139.788 669 139.676 669 139.558V58.0993C669 57.3519 669.373 56.9896 670.119 57.0122C677.163 57.1255 684.308 57.1255 691.556 57.0122C699.843 56.8764 705.886 57.8728 709.685 60.0016C718.741 65.063 722.828 74.3028 721.861 84.3068C720.448 99.0044 711.855 106.636 696.084 107.202C690.645 107.406 685.23 107.417 679.837 107.236C678.91 107.214 678.446 107.667 678.446 108.595ZM678.531 65.9293L678.463 98.4042C678.463 98.5484 678.52 98.6866 678.622 98.7885C678.724 98.8905 678.862 98.9477 679.006 98.9477L696.44 98.9817C698.605 98.9863 700.749 98.588 702.751 97.8095C704.753 97.031 706.572 95.8875 708.106 94.4443C709.64 93.0012 710.858 91.2867 711.69 89.3986C712.523 87.5106 712.953 85.4861 712.958 83.4406V81.0288C712.966 76.8982 711.238 72.9332 708.153 70.006C705.068 67.0788 700.879 65.429 696.508 65.4197L679.074 65.3857C678.93 65.3857 678.792 65.443 678.69 65.5449C678.588 65.6469 678.531 65.7851 678.531 65.9293Z" fill="#0064C6"/>
<path d="M749.436 57H740.564C740.252 57 740 57.236 740 57.527V139.473C740 139.764 740.252 140 740.564 140H749.436C749.748 140 750 139.764 750 139.473V57.527C750 57.236 749.748 57 749.436 57Z" fill="#0064C6"/>
<path d="M786.158 65.3341L766.564 65.317C766.488 65.3171 766.413 65.302 766.344 65.2727C766.275 65.2433 766.212 65.2004 766.159 65.1463C766.107 65.0923 766.065 65.0283 766.038 64.958C766.011 64.8878 765.998 64.8129 766 64.7376L766.137 57.5624C766.141 57.4162 766.203 57.2775 766.308 57.1757C766.413 57.0739 766.554 57.017 766.7 57.017L816.437 57C816.586 57 816.729 57.0592 816.835 57.1647C816.941 57.2702 817 57.4132 817 57.5624L816.983 64.7546C816.983 64.9038 816.924 65.0468 816.818 65.1523C816.712 65.2578 816.569 65.317 816.42 65.317L796.621 65.3341C796.471 65.3341 796.328 65.3933 796.222 65.4988C796.117 65.6043 796.057 65.7473 796.057 65.8965L796.091 139.438C796.091 139.587 796.032 139.73 795.927 139.835C795.821 139.941 795.678 140 795.528 140H787.284C787.135 140 786.992 139.941 786.886 139.835C786.78 139.73 786.721 139.587 786.721 139.438V65.8965C786.721 65.7473 786.662 65.6043 786.556 65.4988C786.45 65.3933 786.307 65.3341 786.158 65.3341Z" fill="#0064C6"/>
<path d="M883.204 116.723L845.468 116.706C845.353 116.704 845.24 116.737 845.144 116.8C845.047 116.864 844.972 116.955 844.928 117.062L835.95 139.575C835.906 139.682 835.831 139.774 835.735 139.837C835.638 139.901 835.525 139.934 835.41 139.932L826.567 139.881C826.473 139.88 826.381 139.856 826.299 139.81C826.216 139.765 826.146 139.7 826.095 139.621C826.043 139.543 826.012 139.452 826.003 139.358C825.994 139.264 826.008 139.17 826.044 139.082L859.965 57.3909C860.009 57.2837 860.084 57.1923 860.18 57.1287C860.277 57.0651 860.39 57.0321 860.505 57.0341L868.791 57.0001C868.907 56.9981 869.02 57.0311 869.116 57.0947C869.212 57.1584 869.287 57.2497 869.331 57.3569L902.949 139.099C902.989 139.187 903.006 139.284 902.998 139.38C902.991 139.477 902.96 139.57 902.908 139.651C902.856 139.732 902.785 139.799 902.701 139.845C902.616 139.891 902.522 139.915 902.426 139.915L893.532 140C893.417 140.002 893.304 139.969 893.207 139.905C893.111 139.842 893.036 139.75 892.992 139.643L883.744 117.079C883.7 116.972 883.625 116.881 883.528 116.817C883.432 116.754 883.319 116.721 883.204 116.723ZM848.287 108.091C848.254 108.177 848.242 108.269 848.252 108.36C848.263 108.451 848.295 108.538 848.347 108.613C848.398 108.689 848.468 108.75 848.548 108.793C848.629 108.835 848.719 108.857 848.81 108.856L879.947 108.805C880.038 108.804 880.128 108.78 880.209 108.736C880.289 108.692 880.357 108.628 880.408 108.551C880.458 108.473 880.488 108.385 880.496 108.293C880.504 108.201 880.489 108.108 880.453 108.023L864.825 68.7747C864.783 68.6721 864.712 68.5844 864.62 68.5227C864.529 68.461 864.421 68.428 864.311 68.428C864.2 68.428 864.093 68.461 864.001 68.5227C863.91 68.5844 863.838 68.6721 863.796 68.7747L848.287 108.091Z" fill="#0064C6"/>
<path d="M930.748 131.554L960.355 131.622C960.526 131.622 960.69 131.692 960.811 131.816C960.932 131.94 961 132.109 961 132.285V139.303C961 139.479 960.932 139.648 960.811 139.772C960.69 139.896 960.526 139.966 960.355 139.966L921.645 140C921.474 140 921.31 139.93 921.189 139.806C921.068 139.682 921 139.513 921 139.337V57.6798C921 57.504 921.068 57.3354 921.189 57.2111C921.31 57.0868 921.474 57.017 921.645 57.017L929.473 57C929.644 57 929.809 57.0698 929.93 57.1941C930.051 57.3184 930.119 57.487 930.119 57.6628L930.102 130.891C930.102 131.067 930.17 131.235 930.291 131.36C930.412 131.484 930.576 131.554 930.748 131.554Z" fill="#0064C6"/>
<path d="M417 178.781C417 178.583 417.078 178.393 417.217 178.253C417.357 178.113 417.545 178.034 417.742 178.034L445.591 178C450.626 177.991 455.614 178.98 460.269 180.911C464.924 182.841 469.156 185.676 472.722 189.252C476.289 192.828 479.121 197.076 481.056 201.754C482.991 206.431 483.991 211.446 484 216.513V222.318C484.009 227.384 483.026 232.403 481.107 237.087C479.189 241.771 476.372 246.029 472.818 249.618C469.264 253.207 465.042 256.056 460.394 258.003C455.745 259.95 450.761 260.957 445.726 260.966L417.877 261C417.68 261 417.492 260.921 417.352 260.781C417.213 260.641 417.135 260.451 417.135 260.253L417 178.781ZM426.176 186.826L426.277 252.106C426.277 252.241 426.331 252.371 426.426 252.466C426.521 252.561 426.649 252.615 426.784 252.615L444.984 252.598C452.818 252.585 460.325 249.446 465.854 243.872C471.384 238.298 474.483 230.747 474.469 222.878V215.919C474.463 212.022 473.692 208.166 472.202 204.568C470.711 200.971 468.53 197.704 465.783 194.954C463.036 192.204 459.776 190.024 456.19 188.539C452.604 187.054 448.762 186.293 444.883 186.3L426.682 186.317C426.548 186.317 426.419 186.371 426.324 186.466C426.23 186.562 426.176 186.691 426.176 186.826Z" fill="#0064C6"/>
<path d="M513.318 187.051L513.352 214.1C513.352 214.196 513.371 214.291 513.408 214.38C513.444 214.468 513.498 214.549 513.565 214.617C513.633 214.684 513.713 214.738 513.801 214.775C513.889 214.812 513.984 214.83 514.079 214.83L549.036 214.847C549.229 214.847 549.414 214.924 549.55 215.061C549.686 215.198 549.763 215.384 549.763 215.578L549.678 222.217C549.678 222.411 549.602 222.596 549.466 222.733C549.329 222.87 549.144 222.947 548.951 222.947L514.046 222.862C513.853 222.862 513.668 222.939 513.531 223.076C513.395 223.213 513.318 223.399 513.318 223.592L513.352 251.78C513.352 251.876 513.371 251.971 513.408 252.059C513.444 252.148 513.498 252.228 513.565 252.296C513.633 252.364 513.713 252.418 513.801 252.454C513.889 252.491 513.984 252.51 514.079 252.51L549.273 252.646C549.37 252.646 549.465 252.665 549.555 252.703C549.644 252.741 549.725 252.796 549.793 252.865C549.861 252.935 549.914 253.018 549.949 253.108C549.985 253.199 550.002 253.295 550 253.393L549.881 260.27C549.877 260.461 549.798 260.642 549.663 260.775C549.527 260.908 549.344 260.983 549.154 260.983L504.727 261C504.534 261 504.349 260.923 504.213 260.786C504.077 260.649 504 260.464 504 260.27L504.135 178.73C504.135 178.634 504.154 178.539 504.191 178.451C504.227 178.362 504.281 178.282 504.348 178.214C504.416 178.146 504.496 178.092 504.584 178.056C504.672 178.019 504.767 178 504.863 178L549.205 178.136C549.395 178.14 549.576 178.219 549.708 178.356C549.841 178.492 549.915 178.675 549.915 178.866L549.848 185.607C549.843 185.798 549.765 185.979 549.629 186.113C549.493 186.246 549.31 186.32 549.12 186.32H514.046C513.95 186.32 513.855 186.339 513.767 186.376C513.679 186.413 513.599 186.466 513.531 186.534C513.464 186.602 513.41 186.683 513.374 186.771C513.337 186.86 513.318 186.955 513.318 187.051Z" fill="#0064C6"/>
<path d="M663.033 237.693H624.762C624.651 237.695 624.543 237.731 624.451 237.794C624.36 237.858 624.29 237.947 624.249 238.05L615.109 260.609C615.067 260.714 614.994 260.805 614.9 260.869C614.805 260.933 614.693 260.966 614.579 260.965L605.558 260.829C605.465 260.829 605.374 260.805 605.293 260.76C605.211 260.716 605.142 260.652 605.092 260.575C605.041 260.498 605.01 260.409 605.002 260.317C604.994 260.225 605.009 260.133 605.046 260.048L639.455 178.357C639.498 178.257 639.57 178.171 639.661 178.111C639.752 178.051 639.858 178.018 639.968 178.017L648.374 178C648.483 178.001 648.59 178.034 648.681 178.094C648.772 178.154 648.843 178.24 648.886 178.34L682.954 260.014C682.991 260.099 683.006 260.191 682.998 260.283C682.99 260.375 682.959 260.464 682.908 260.541C682.858 260.618 682.789 260.682 682.707 260.726C682.626 260.771 682.535 260.795 682.442 260.795L673.438 260.999C673.323 261.005 673.209 260.976 673.111 260.915C673.013 260.854 672.936 260.765 672.891 260.66L663.545 238.033C663.502 237.933 663.431 237.847 663.34 237.787C663.249 237.727 663.142 237.694 663.033 237.693ZM627.615 229.029C627.578 229.116 627.563 229.21 627.572 229.303C627.581 229.396 627.613 229.486 627.666 229.564C627.719 229.641 627.79 229.705 627.874 229.748C627.957 229.791 628.051 229.813 628.145 229.811H659.582C659.676 229.813 659.769 229.791 659.853 229.748C659.937 229.705 660.008 229.641 660.061 229.564C660.113 229.486 660.146 229.396 660.154 229.303C660.163 229.21 660.148 229.116 660.111 229.029L644.393 189.704C644.353 189.596 644.281 189.503 644.187 189.437C644.092 189.371 643.979 189.336 643.863 189.336C643.748 189.336 643.635 189.371 643.54 189.437C643.445 189.503 643.373 189.596 643.334 189.704L627.615 229.029Z" fill="#0064C6"/>
<path d="M709.334 189.441C708.77 188.866 708.489 188.985 708.489 189.796C708.737 214.435 708.889 237.852 708.945 260.047C708.945 260.317 708.81 260.458 708.539 260.469C703.782 260.649 700.958 260.542 700.068 260.148C700.023 260.125 700 260.086 700 260.03C700.147 233.678 700.18 206.74 700.101 179.217C700.09 178.406 700.496 178 701.319 178H711.972C712.739 178 713.28 178.355 713.595 179.065L743.12 245.834C743.162 245.936 743.233 246.023 743.325 246.085C743.417 246.146 743.525 246.179 743.635 246.179C743.746 246.179 743.854 246.146 743.945 246.085C744.037 246.023 744.109 245.936 744.151 245.834L773.658 178.929C773.929 178.31 774.397 178 775.062 178H785.918C786.639 178 787 178.361 787 179.082V260.131C787 260.39 786.87 260.52 786.611 260.52L778.799 260.452C778.618 260.452 778.528 260.362 778.528 260.182L778.714 189.982C778.714 187.976 778.314 187.892 777.514 189.728L747.448 258.475C747.121 259.224 746.583 259.862 745.899 260.31C745.216 260.758 744.416 260.998 743.599 261C742.781 261.002 741.98 260.766 741.295 260.32C740.609 259.875 740.068 259.239 739.738 258.492C729.885 236.218 719.863 213.427 709.672 190.117C709.503 189.723 709.39 189.497 709.334 189.441Z" fill="#0064C6"/>
<path d="M859.238 204.779C859.292 204.889 859.375 204.982 859.478 205.048C859.58 205.115 859.699 205.153 859.823 205.158C859.946 205.163 860.07 205.136 860.18 205.078C860.291 205.02 860.385 204.934 860.454 204.83C863.864 199.326 867.64 193.777 871.781 188.183C884.442 171.045 905.865 179.25 908.667 198.676C910.507 211.339 904.498 223.493 896.057 232.901C885.86 244.281 874.071 254.26 860.69 262.838C860.513 262.952 860.305 263.008 860.096 262.999C859.888 262.99 859.688 262.916 859.525 262.787C847.528 253.554 836.55 243.812 826.59 233.562C817.254 223.951 809.083 209.593 811.396 196.116C812.949 187.042 817.851 181.25 826.1 178.741C834.288 176.266 841.665 180.267 846.965 186.624C851.884 192.5 855.975 198.552 859.238 204.779Z" fill="#FF0250"/>
</g>
<defs>
<clipPath id="clip0_103_115">
<rect width="990" height="270" fill="white"/>
</clipPath>
</defs>
</svg>
